<svg width="219" height="206" viewBox="0 0 219 206" fill="none" xmlns="http://www.w3.org/2000/svg">
<path opacity="0.15" d="M-43.5329 -10.506C-23.2057 -60.0118 33.4051 -83.6658 82.9109 -63.3386C132.417 -43.0114 156.071 13.5994 135.744 63.1052C115.416 112.611 58.8056 136.265 9.29973 115.938C-40.2061 95.6107 -63.8601 38.9998 -43.5329 -10.506ZM119.605 56.4788C136.273 15.8859 116.877 -30.5328 76.2845 -47.2003C35.6916 -63.8678 -10.7271 -44.4725 -27.3946 -3.87958C-44.0621 36.7133 -24.6668 83.1321 15.9261 99.7996C56.519 116.467 102.938 97.0717 119.605 56.4788Z" fill="url(#paint0_linear_1_666)" fill-opacity="0.9"/>
<path opacity="0.15" d="M99.6206 -80.387C165.008 -53.5388 196.25 21.233 169.402 86.6205C142.554 152.008 67.7821 183.25 2.39457 156.402C-62.9929 129.554 -94.2352 54.782 -67.387 -10.6055C-40.5387 -75.993 34.2331 -107.235 99.6206 -80.387ZM11.1468 135.087C64.762 157.101 126.072 131.484 148.087 77.8684C170.101 24.2531 144.484 -37.057 90.8684 -59.0715C37.2531 -81.086 -24.0569 -55.4686 -46.0715 -1.8533C-68.086 51.762 -42.4685 113.072 11.1468 135.087Z" fill="url(#paint1_linear_1_666)" fill-opacity="0.9"/>
<circle opacity="0.15" cx="51.0076" cy="38.0076" r="65.7513" transform="rotate(-67.6769 51.0076 38.0076)" fill="url(#paint2_linear_1_666)" fill-opacity="0.9"/>
<defs>
<linearGradient id="paint0_linear_1_666" x1="19.2252" y1="139.692" x2="92.8364" y2="-39.5847" gradientUnits="userSpaceOnUse">
<stop stop-color="white" stop-opacity="0"/>
<stop offset="0.497674" stop-color="white" stop-opacity="0.8"/>
<stop offset="1" stop-color="white" stop-opacity="0"/>
</linearGradient>
<linearGradient id="paint1_linear_1_666" x1="-75.1199" y1="76.9133" x2="183.322" y2="-17.324" gradientUnits="userSpaceOnUse">
<stop stop-color="white" stop-opacity="0"/>
<stop offset="0.497674" stop-color="white" stop-opacity="0.8"/>
<stop offset="1" stop-color="white" stop-opacity="0"/>
</linearGradient>
<linearGradient id="paint2_linear_1_666" x1="51.0076" y1="-27.7437" x2="51.0076" y2="103.759" gradientUnits="userSpaceOnUse">
<stop stop-color="white" stop-opacity="0"/>
<stop offset="0.497674" stop-color="white" stop-opacity="0.8"/>
<stop offset="1" stop-color="white" stop-opacity="0"/>
</linearGradient>
</defs>
</svg>
